# xmcd
#
# Track frame offsets:
#	150
#	10394
#	29156
#	42856
#	56119
#	68123
#	81469
#	95887
#	104919
#	114641
#	125558
#	140575
#	151514
#	164882
#	177469
#	194726
#	209078
#	226418
#	238395
#
# Disc length: 3367 seconds
#
# Revision: 0
# Processed by: cddbd v1.5.2PL0 Copyright (c) Steve Scherf et al.
# Submitted via: EasyCDDAExtractor 16.0.8.2
#
DISCID=350d2513
DTITLE=Συλλογικός δίσκος - Τα ωραιότερα ιταλικά τραγούδια 1
DYEAR=2011
DGENRE=Ξένη ιταλική
TTITLE0=Adriano Celentano - Ventiquattromila baci
TTITLE1=Betty Curtis - Al di la
TTITLE2=Renato Carosone - Chella lla
TTITLE3=Mina - Il cielo in una stanza
TTITLE4=Peppino di Capri - E mezzanottee
TTITLE5=Marino Marini - Marina
TTITLE6=Connie Francis - Santa Lucia
TTITLE7=Adriano Celentano - Il tuo bacio e come un rock
TTITLE8=Mina - La verita
TTITLE9=Fred Buscaglione - Che bambola
TTITLE10=Milva - Violino tzigano
TTITLE11=Lou Monte - Hey Gumbaree
TTITLE12=Caterina Valente - Melodia d' amore
TTITLE13=Gino Paoli - Senza fine
TTITLE14=Bruno Martino - Estate
TTITLE15=Connie Francis - Guaglione
TTITLE16=Peppino di Capri - Voce e notte
TTITLE17=Marino Marini - Gira girasole
TTITLE18=Johnny Dorelli - Nel blu, diminto di blu
EXTD=
EXTT0=
EXTT1=
EXTT2=
EXTT3=
EXTT4=
EXTT5=
EXTT6=
EXTT7=
EXTT8=
EXTT9=
EXTT10=
EXTT11=
EXTT12=
EXTT13=
EXTT14=
EXTT15=
EXTT16=
EXTT17=
EXTT18=
PLAYORDER=
